#Comment line ignore any data following # character 
#Hierarchical Translation and Rotation (.htr) file 
[Header]	
#Header keywords are followed by a single value 
FileType HTR		#Single word string
DataType HTRS		#Translation followed by rotation and scale data
FileVersion 1		#integer
NumSegments 84		#integer
NumFrames 2		#integer
DataFrameRate 30		#integer, data frame rate in this file
EulerRotationOrder ZYX
CalibrationUnits mm
RotationUnits Degrees
GlobalAxisofGravity Y
BoneLengthAxis Y
ScaleFactor 1.00
[SegmentNames&Hierarchy]
#CHILD	PARENT
MASTER GLOBAL
root MASTER
chest root
L_mid_tent01 root
R_mid_tent01 root
spine01 root
Bip01_Neck chest
L_humerus chest
R_humerus chest
weapon_bone chest
Bip01_Head Bip01_Neck
eye_left_bone Bip01_Head
eye_right_bone Bip01_Head
L_forearm L_humerus
L_front_hand L_forearm
L_weapon_bone L_forearm
L_front_hand01_01 L_front_hand
L_front_hand02_01 L_front_hand
L_front_hand03_01 L_front_hand
L_front_hand01_02 L_front_hand01_01
L_front_hand02_02 L_front_hand02_01
L_front_hand03_02 L_front_hand03_01
R_forearm R_humerus
R_front_hand R_forearm
R_weapon_bone R_forearm
R_front_hand01_01 R_front_hand
R_front_hand02_01 R_front_hand
R_front_hand03_01 R_front_hand
R_front_hand01_02 R_front_hand01_01
R_front_hand02_02 R_front_hand02_01
R_front_hand03_02 R_front_hand03_01
null_rope01_connect L_mid_tent01
Rope1_Seg01 null_rope01_connect
Rope1_Seg02 Rope1_Seg01
Rope1_Seg03 Rope1_Seg02
Rope1_Seg04 Rope1_Seg03
Rope1_Seg05 Rope1_Seg04
Rope1_Seg06 Rope1_Seg05
Rope1_Seg07 Rope1_Seg06
Rope1_Seg09 Rope1_Seg07
L_mid_hand01 Rope1_Seg09
L_mid_hand02 Rope1_Seg09
L_mid_hand03 Rope1_Seg09
null_rope02_connect R_mid_tent01
Rope2_Seg01 null_rope02_connect
Rope2_Seg02 Rope2_Seg01
Rope2_Seg03 Rope2_Seg02
Rope2_Seg04 Rope2_Seg03
Rope2_Seg05 Rope2_Seg04
Rope2_Seg06 Rope2_Seg05
Rope2_Seg07 Rope2_Seg06
Rope2_Seg09 Rope2_Seg07
R_mid_hand01 Rope2_Seg09
R_mid_hand02 Rope2_Seg09
R_mid_hand03 Rope2_Seg09
spine02 spine01
spine03 spine02
pelvis spine03
null_rope03_connect pelvis
null_rope04_connect pelvis
Rope3_Seg01 null_rope03_connect
Rope3_Seg02 Rope3_Seg01
Rope3_Seg03 Rope3_Seg02
Rope3_Seg04 Rope3_Seg03
Rope3_Seg05 Rope3_Seg04
Rope3_Seg06 Rope3_Seg05
Rope3_Seg07 Rope3_Seg06
Rope3_Seg08 Rope3_Seg07
Rope3_Seg09 Rope3_Seg08
R_rear_hand01 Rope3_Seg09
R_rear_hand02 Rope3_Seg09
R_rear_hand03 Rope3_Seg09
Rope4_Seg01 null_rope04_connect
Rope4_Seg02 Rope4_Seg01
Rope4_Seg03 Rope4_Seg02
Rope4_Seg04 Rope4_Seg03
Rope4_Seg05 Rope4_Seg04
Rope4_Seg06 Rope4_Seg05
Rope4_Seg07 Rope4_Seg06
Rope4_Seg08 Rope4_Seg07
Rope4_Seg09 Rope4_Seg08
L_rear_hand01 Rope4_Seg09
L_rear_hand02 Rope4_Seg09
L_rear_hand03 Rope4_Seg09
[BasePosition]
#SegmentName Tx, Ty, Tz, Rx, Ry, Rz, BoneLength
MASTER 0.000000 0.000000 0.000000 -90.000000 0.000000 0.000000 10.000000 
root 0.000000 0.000000 0.000000 0.000000 0.000000 0.000000 10.000000 
chest 0.000000 0.000000 0.000000 0.000000 0.000000 0.000000 10.000000 
L_mid_tent01 0.000000 0.000000 0.000000 0.000000 0.000000 0.000000 10.000000 
R_mid_tent01 0.000000 0.000000 0.000000 0.000000 0.000000 0.000000 10.000000 
spine01 0.000000 0.000000 0.000000 0.000000 0.000000 0.000000 10.000000 
Bip01_Neck 0.000000 0.000000 0.000000 0.000000 0.000000 0.000000 10.000000 
L_humerus 0.000000 0.000000 0.000000 0.000000 0.000000 0.000000 10.000000 
R_humerus 0.000000 0.000000 0.000000 0.000000 0.000000 0.000000 10.000000 
weapon_bone 0.000000 0.000000 0.000000 0.000000 0.000000 0.000000 10.000000 
Bip01_Head 0.000000 0.000000 0.000000 0.000000 0.000000 0.000000 10.000000 
eye_left_bone 0.000000 0.000000 0.000000 0.000000 0.000000 0.000000 10.000000 
eye_right_bone 0.000000 0.000000 0.000000 0.000000 0.000000 0.000000 10.000000 
L_forearm 0.000000 0.000000 0.000000 0.000000 0.000000 0.000000 10.000000 
L_front_hand 0.000000 0.000000 0.000000 0.000000 0.000000 0.000000 10.000000 
L_weapon_bone 0.000000 0.000000 0.000000 0.000000 0.000000 0.000000 10.000000 
L_front_hand01_01 0.000000 0.000000 0.000000 0.000000 0.000000 0.000000 10.000000 
L_front_hand02_01 0.000000 0.000000 0.000000 0.000000 0.000000 0.000000 10.000000 
L_front_hand03_01 0.000000 0.000000 0.000000 0.000000 0.000000 0.000000 10.000000 
L_front_hand01_02 0.000000 0.000000 0.000000 0.000000 0.000000 0.000000 10.000000 
L_front_hand02_02 0.000000 0.000000 0.000000 0.000000 0.000000 0.000000 10.000000 
L_front_hand03_02 0.000000 0.000000 0.000000 0.000000 0.000000 0.000000 10.000000 
R_forearm 0.000000 0.000000 0.000000 0.000000 0.000000 0.000000 10.000000 
R_front_hand 0.000000 0.000000 0.000000 0.000000 0.000000 0.000000 10.000000 
R_weapon_bone 0.000000 0.000000 0.000000 0.000000 0.000000 0.000000 10.000000 
R_front_hand01_01 0.000000 0.000000 0.000000 0.000000 0.000000 0.000000 10.000000 
R_front_hand02_01 0.000000 0.000000 0.000000 0.000000 0.000000 0.000000 10.000000 
R_front_hand03_01 0.000000 0.000000 0.000000 0.000000 0.000000 0.000000 10.000000 
R_front_hand01_02 0.000000 0.000000 0.000000 0.000000 0.000000 0.000000 10.000000 
R_front_hand02_02 0.000000 0.000000 0.000000 0.000000 0.000000 0.000000 10.000000 
R_front_hand03_02 0.000000 0.000000 0.000000 0.000000 0.000000 0.000000 10.000000 
null_rope01_connect 0.000000 0.000000 0.000000 0.000000 0.000000 0.000000 10.000000 
Rope1_Seg01 0.000000 0.000000 0.000000 0.000000 0.000000 0.000000 10.000000 
Rope1_Seg02 0.000000 0.000000 0.000000 0.000000 0.000000 0.000000 10.000000 
Rope1_Seg03 0.000000 0.000000 0.000000 0.000000 0.000000 0.000000 10.000000 
Rope1_Seg04 0.000000 0.000000 0.000000 0.000000 0.000000 0.000000 10.000000 
Rope1_Seg05 0.000000 0.000000 0.000000 0.000000 0.000000 0.000000 10.000000 
Rope1_Seg06 0.000000 0.000000 0.000000 0.000000 0.000000 0.000000 10.000000 
Rope1_Seg07 0.000000 0.000000 0.000000 0.000000 0.000000 0.000000 10.000000 
Rope1_Seg09 0.000000 0.000000 0.000000 0.000000 0.000000 0.000000 10.000000 
L_mid_hand01 0.000000 0.000000 0.000000 0.000000 0.000000 0.000000 10.000000 
L_mid_hand02 0.000000 0.000000 0.000000 0.000000 0.000000 0.000000 10.000000 
L_mid_hand03 0.000000 0.000000 0.000000 0.000000 0.000000 0.000000 10.000000 
null_rope02_connect 0.000000 0.000000 0.000000 0.000000 0.000000 0.000000 10.000000 
Rope2_Seg01 0.000000 0.000000 0.000000 0.000000 0.000000 0.000000 10.000000 
Rope2_Seg02 0.000000 0.000000 0.000000 0.000000 0.000000 0.000000 10.000000 
Rope2_Seg03 0.000000 0.000000 0.000000 0.000000 0.000000 0.000000 10.000000 
Rope2_Seg04 0.000000 0.000000 0.000000 0.000000 0.000000 0.000000 10.000000 
Rope2_Seg05 0.000000 0.000000 0.000000 0.000000 0.000000 0.000000 10.000000 
Rope2_Seg06 0.000000 0.000000 0.000000 0.000000 0.000000 0.000000 10.000000 
Rope2_Seg07 0.000000 0.000000 0.000000 0.000000 0.000000 0.000000 10.000000 
Rope2_Seg09 0.000000 0.000000 0.000000 0.000000 0.000000 0.000000 10.000000 
R_mid_hand01 0.000000 0.000000 0.000000 0.000000 0.000000 0.000000 10.000000 
R_mid_hand02 0.000000 0.000000 0.000000 0.000000 0.000000 0.000000 10.000000 
R_mid_hand03 0.000000 0.000000 0.000000 0.000000 0.000000 0.000000 10.000000 
spine02 0.000000 0.000000 0.000000 0.000000 0.000000 0.000000 10.000000 
spine03 0.000000 0.000000 0.000000 0.000000 0.000000 0.000000 10.000000 
pelvis 0.000000 0.000000 0.000000 0.000000 0.000000 0.000000 10.000000 
null_rope03_connect 0.000000 0.000000 0.000000 0.000000 0.000000 0.000000 10.000000 
null_rope04_connect 0.000000 0.000000 0.000000 0.000000 0.000000 0.000000 10.000000 
Rope3_Seg01 0.000000 0.000000 0.000000 0.000000 0.000000 0.000000 10.000000 
Rope3_Seg02 0.000000 0.000000 0.000000 0.000000 0.000000 0.000000 10.000000 
Rope3_Seg03 0.000000 0.000000 0.000000 0.000000 0.000000 0.000000 10.000000 
Rope3_Seg04 0.000000 0.000000 0.000000 0.000000 0.000000 0.000000 10.000000 
Rope3_Seg05 0.000000 0.000000 0.000000 0.000000 0.000000 0.000000 10.000000 
Rope3_Seg06 0.000000 0.000000 0.000000 0.000000 0.000000 0.000000 10.000000 
Rope3_Seg07 0.000000 0.000000 0.000000 0.000000 0.000000 0.000000 10.000000 
Rope3_Seg08 0.000000 0.000000 0.000000 0.000000 0.000000 0.000000 10.000000 
Rope3_Seg09 0.000000 0.000000 0.000000 0.000000 0.000000 0.000000 10.000000 
R_rear_hand01 0.000000 0.000000 0.000000 0.000000 0.000000 0.000000 10.000000 
R_rear_hand02 0.000000 0.000000 0.000000 0.000000 0.000000 0.000000 10.000000 
R_rear_hand03 0.000000 0.000000 0.000000 0.000000 0.000000 0.000000 10.000000 
Rope4_Seg01 0.000000 0.000000 0.000000 0.000000 0.000000 0.000000 10.000000 
Rope4_Seg02 0.000000 0.000000 0.000000 0.000000 0.000000 0.000000 10.000000 
Rope4_Seg03 0.000000 0.000000 0.000000 0.000000 0.000000 0.000000 10.000000 
Rope4_Seg04 0.000000 0.000000 0.000000 0.000000 0.000000 0.000000 10.000000 
Rope4_Seg05 0.000000 0.000000 0.000000 0.000000 0.000000 0.000000 10.000000 
Rope4_Seg06 0.000000 0.000000 0.000000 0.000000 0.000000 0.000000 10.000000 
Rope4_Seg07 0.000000 0.000000 0.000000 0.000000 0.000000 0.000000 10.000000 
Rope4_Seg08 0.000000 0.000000 0.000000 0.000000 0.000000 0.000000 10.000000 
Rope4_Seg09 0.000000 0.000000 0.000000 0.000000 0.000000 0.000000 10.000000 
L_rear_hand01 0.000000 0.000000 0.000000 0.000000 0.000000 0.000000 10.000000 
L_rear_hand02 0.000000 0.000000 0.000000 0.000000 0.000000 0.000000 10.000000 
L_rear_hand03 0.000000 0.000000 0.000000 0.000000 0.000000 0.000000 10.000000 
#Beginning of Data. Separated by tabs
#Fr	Tx	Ty	Tz	Rx	Ry	Rz	SF
[MASTER]
16 0.000003 -0.000066 -2251.578125 0.001660 0.001660 0.001660 2251.578125
17 0.000003 -0.000063 -2493.389648 0.001660 0.001660 0.001660 2493.389648
[root]
16 -16.502300 -16.318993 1462.613525 -97.797142 -29.598078 -89.162804 1462.797729
17 -16.502300 -14.580581 1461.467896 -97.851425 -32.085583 -88.734924 1461.633789
[chest]
16 -84.512650 -34.090519 0.000000 -7.547281 -7.681983 160.151184 91.129311
17 -84.512650 -34.090519 0.000000 -1.875040 -8.134851 158.749252 91.129311
[L_mid_tent01]
16 27.299265 22.178579 -249.918564 3.862626 36.229160 81.347595 252.381516
17 27.299261 22.178596 -249.918579 3.272611 27.607033 80.589035 252.381531
[R_mid_tent01]
16 23.228794 24.509907 226.238495 160.432037 -47.061207 87.899765 228.744751
17 23.228794 24.509907 226.238495 162.034500 -39.711082 85.226433 228.744751
[spine01]
16 -0.361383 -0.195265 0.000000 0.002062 0.001122 32.879829 0.410763
17 -0.361383 -0.195265 0.000000 0.002062 0.001122 32.879829 0.410763
[Bip01_Neck]
16 165.484543 71.581718 0.000119 176.643677 -1.657967 43.431911 180.302734
17 165.484543 71.581718 0.000119 176.643677 -1.657967 43.431911 180.302734
[L_humerus]
16 -13.983130 -135.272980 -120.471481 58.397320 71.072090 -176.296417 181.680161
17 -13.983130 -135.272980 -120.471481 80.061493 73.208687 -152.002777 181.680161
[R_humerus]
16 -13.983309 -135.273102 125.287651 -170.635574 -15.340754 -101.120743 184.909012
17 -13.983309 -135.273102 125.287651 -171.572342 -12.705878 -99.477974 184.909012
[weapon_bone]
16 235.964890 -300.705902 0.000000 0.000000 -89.951546 -128.212341 382.234833
17 235.964890 -300.705902 0.000000 0.000000 -89.951546 -128.212341 382.234833
[Bip01_Head]
16 213.338852 186.009064 7.986779 32.755650 3.122514 -43.867630 283.154785
17 213.370667 185.920181 9.132696 32.181011 0.098415 -43.899757 283.155029
[eye_left_bone]
16 -24.626970 125.451866 -64.772606 0.000000 -90.000000 -99.840431 143.318359
17 -24.626970 125.451866 -64.772606 0.000000 -90.000000 -99.840431 143.318359
[eye_right_bone]
16 -24.626970 125.451866 64.327362 0.000000 -89.965736 80.156380 143.117676
17 -24.626970 125.451866 64.327362 0.000000 -89.965736 80.156380 143.117676
[L_forearm]
16 322.776093 0.000000 -0.000119 0.000148 -0.002343 -97.206139 322.776093
17 322.776093 0.000000 -0.000119 0.000141 -0.002343 -96.869461 322.776093
[L_front_hand]
16 241.149185 -0.042021 -3.300071 -178.580307 -1.772699 -30.129839 241.171753
17 241.149185 -0.042021 -3.300071 -178.591339 -1.781934 -29.776182 241.171753
[L_weapon_bone]
16 156.183838 0.000000 0.000000 0.000014 0.000007 0.000001 156.183838
17 156.183838 0.000000 0.000000 0.000014 0.000007 0.000001 156.183838
[L_front_hand01_01]
16 86.095154 20.947098 -0.655860 -0.366594 -0.477154 75.385574 88.609184
17 86.095154 20.947098 -0.655860 -0.366594 -0.477154 75.385582 88.609184
[L_front_hand02_01]
16 86.935165 -11.437475 24.513514 154.399796 -59.883835 -61.369587 91.046425
17 86.935165 -11.437475 24.513514 154.399796 -59.883835 -61.369587 91.046425
[L_front_hand03_01]
16 86.637497 -14.123976 -20.424902 -153.913864 58.118130 -62.702885 90.126129
17 86.637497 -14.123976 -20.424902 -153.913849 58.118122 -62.702866 90.126129
[L_front_hand01_02]
16 71.020905 -0.000179 0.000030 0.000334 -0.002323 -106.365288 71.020905
17 71.020905 -0.000179 0.000030 0.000334 -0.002323 -106.379684 71.020905
[L_front_hand02_02]
16 71.020927 -0.000119 0.000060 0.000334 -0.002323 -106.365288 71.020927
17 71.020927 -0.000119 0.000060 0.000334 -0.002323 -106.379684 71.020927
[L_front_hand03_02]
16 71.020905 -0.000060 0.000060 0.000334 -0.002323 -106.365288 71.020905
17 71.020905 -0.000060 0.000060 0.000334 -0.002323 -106.379684 71.020905
[R_forearm]
16 322.776428 -0.000060 0.000030 0.212697 0.018295 -95.460190 322.776428
17 322.776428 -0.000060 0.000030 0.212744 0.017736 -95.159065 322.776428
[R_front_hand]
16 238.847015 -0.006795 2.210259 -2.039139 -10.773657 -29.500458 238.857239
17 238.847015 -0.006795 2.210259 -2.114594 -10.758624 -29.103310 238.857239
[R_weapon_bone]
16 155.664093 0.002503 -0.000030 0.003487 0.001180 -90.988930 155.664078
17 155.664093 0.002503 -0.000030 0.003487 0.001180 -90.988930 155.664078
[R_front_hand01_01]
16 87.624611 14.231146 22.918642 -154.633499 -59.950619 61.746044 91.683487
17 87.624611 14.231146 22.918642 -154.633484 -59.950607 61.746033 91.683487
[R_front_hand02_01]
16 89.356956 14.367283 -19.491137 154.602661 58.302849 63.744389 92.579636
17 89.356956 14.367283 -19.491137 154.602661 58.302856 63.744389 92.579636
[R_front_hand03_01]
16 87.286232 -22.307278 -0.143439 0.162155 -0.423168 -75.767921 90.091743
17 87.286232 -22.307278 -0.143439 0.162155 -0.423168 -75.767921 90.091743
[R_front_hand01_02]
16 71.020905 0.000060 0.000119 0.002323 -0.000334 106.381714 71.020905
17 71.020905 0.000060 0.000119 0.002323 -0.000334 106.381714 71.020905
[R_front_hand02_02]
16 71.020844 -0.000030 -0.000119 0.002323 -0.000334 106.381714 71.020836
17 71.020844 -0.000030 -0.000119 0.002323 -0.000334 106.381714 71.020836
[R_front_hand03_02]
16 71.020905 0.000000 0.000030 0.002323 -0.000334 106.381714 71.020905
17 71.020905 0.000000 0.000030 0.002323 -0.000334 106.381714 71.020905
[null_rope01_connect]
16 328.732483 0.000000 -0.000238 -138.127991 -46.590637 178.580154 328.732483
17 328.732483 0.000000 -0.000238 -136.031250 -55.511662 179.176437 328.732483
[Rope1_Seg01]
16 0.000029 -0.000050 0.000117 -1.857469 10.896475 -164.252411 0.000131
17 0.000031 -0.000049 0.000125 -2.625065 14.968184 -168.701126 0.000138
[Rope1_Seg02]
16 139.999863 -0.000179 0.000000 -4.686083 9.537728 -21.984356 139.999863
17 139.999863 -0.000179 0.000000 -1.787766 12.318710 -14.963090 139.999863
[Rope1_Seg03]
16 139.999924 0.000060 -0.000060 -2.848695 13.614763 -26.774254 139.999924
17 139.999924 0.000060 -0.000060 -3.681474 19.697990 -19.846899 139.999924
[Rope1_Seg04]
16 139.999924 -0.000060 -0.000119 3.304962 9.423172 -23.233475 139.999924
17 139.999924 -0.000060 -0.000119 2.254250 11.619862 -23.648655 139.999924
[Rope1_Seg05]
16 139.999832 0.000119 -0.000060 3.932814 2.283286 -8.341809 139.999832
17 139.999832 0.000119 -0.000060 7.616963 1.467787 -11.141395 139.999832
[Rope1_Seg06]
16 139.999954 0.000119 -0.000060 2.425327 0.902071 -3.952442 139.999954
17 139.999954 0.000119 -0.000060 4.141136 0.682628 -4.993562 139.999954
[Rope1_Seg07]
16 139.999985 0.000060 0.000000 1.709203 0.437762 -2.371137 139.999985
17 139.999985 0.000060 0.000000 2.985385 0.187358 -2.947371 139.999985
[Rope1_Seg09]
16 121.602913 0.000119 -0.000089 -89.793175 -1.359789 0.847147 121.602913
17 121.602913 0.000119 -0.000089 -89.793175 -1.359789 0.847147 121.602913
[L_mid_hand01]
16 103.859421 1.038730 8.195221 130.544373 -67.584534 -38.866943 104.187431
17 103.859421 1.038730 8.195221 130.544373 -67.584534 -38.866943 104.187431
[L_mid_hand02]
16 105.572853 -4.139662 -10.864139 -168.923172 43.409309 -73.498886 106.211075
17 105.572853 -4.139662 -10.864139 -168.923172 43.409309 -73.498886 106.211075
[L_mid_hand03]
16 104.641464 17.579376 -3.913581 -6.012627 17.808174 74.893669 106.179977
17 104.641464 17.579376 -3.913581 -6.012627 17.808174 74.893669 106.179977
[null_rope02_connect]
16 328.732849 0.000179 -0.000119 -118.322800 45.968887 23.217205 328.732849
17 328.732849 0.000179 -0.000119 -110.305573 52.340580 28.046373 328.732849
[Rope2_Seg01]
16 -0.000003 0.000104 0.000000 47.506279 42.831001 -20.343107 0.000104
17 0.000002 0.000105 0.000000 51.523140 40.143173 -16.839256 0.000105
[Rope2_Seg02]
16 139.999741 -0.000060 -0.000119 -1.347234 6.561983 -5.958733 139.999756
17 139.999741 -0.000060 -0.000119 -2.074347 6.787211 -7.698398 139.999756
[Rope2_Seg03]
16 140.000107 0.000030 0.000000 -1.453514 10.132020 -8.869951 140.000107
17 140.000107 0.000030 0.000000 -1.963259 10.896130 -11.043873 140.000107
[Rope2_Seg04]
16 139.999802 0.000000 -0.000060 -0.994733 14.988526 -8.547338 139.999802
17 139.999802 0.000000 -0.000060 -1.065990 15.458555 -10.789682 139.999802
[Rope2_Seg05]
16 139.999985 -0.000060 0.000119 2.215941 13.731538 -16.703482 139.999985
17 139.999985 -0.000060 0.000119 6.164732 9.552436 -22.347307 139.999985
[Rope2_Seg06]
16 139.999893 -0.000030 -0.000119 25.197128 11.714637 -33.677303 139.999893
17 139.999893 -0.000030 -0.000119 25.199526 2.323630 -33.347214 139.999893
[Rope2_Seg07]
16 139.999893 0.000060 -0.000060 26.531277 -1.710511 -19.779224 139.999893
17 139.999893 0.000060 -0.000060 15.920283 -4.649804 -15.912350 139.999893
[Rope2_Seg09]
16 121.338966 0.000089 -0.000060 33.793236 -1.359788 -0.847141 121.338966
17 121.338966 0.000089 -0.000060 33.793236 -1.359788 -0.847141 121.338966
[R_mid_hand01]
16 104.680779 11.144459 -10.335981 -16.212063 45.237247 70.462852 105.778534
17 104.680779 11.144459 -10.335981 -16.212063 45.237247 70.462852 105.778534
[R_mid_hand02]
16 104.070427 2.443552 8.231699 49.067368 -67.749771 39.286453 104.424065
17 104.070427 2.443552 8.231699 49.067368 -67.749771 39.286453 104.424065
[R_mid_hand03]
16 106.028137 -11.221827 -5.996406 -177.101105 15.551026 -76.585571 106.788818
17 106.028137 -11.221827 -5.996406 -177.101105 15.551026 -76.585571 106.788818
[spine02]
16 129.756927 0.001550 0.000119 -1.190498 -4.021917 9.189029 129.756927
17 129.756927 0.001550 0.000119 -1.186141 -4.005532 9.104261 129.756927
[spine03]
16 78.613998 0.083243 -4.898947 0.927271 4.434923 2.722122 78.766541
17 78.613998 0.083182 -4.898950 0.931546 4.401484 2.768195 78.766541
[pelvis]
16 169.435242 0.051022 0.000000 0.029295 -0.084461 -13.758150 169.435257
17 169.435242 0.051022 0.000000 0.028541 -0.099511 -13.670977 169.435257
[null_rope03_connect]
16 -1.257226 -2.466202 137.391083 -155.879623 -81.999672 -115.388695 137.418976
17 -1.257226 -2.466202 137.391083 -156.166840 -82.180588 -112.660789 137.418976
[null_rope04_connect]
16 -1.259640 -2.480268 -137.844437 -155.879623 -81.999672 -115.388695 137.872513
17 -1.259640 -2.480268 -137.844437 -156.166840 -82.180588 -112.660789 137.872513
[Rope3_Seg01]
16 -0.000029 -0.000023 0.000117 -0.606583 -28.392719 -41.224014 0.000123
17 -0.000029 -0.000022 0.000125 -1.944287 -26.513704 -38.264309 0.000130
[Rope3_Seg02]
16 139.999924 -0.000119 0.000060 -0.852467 -3.241394 -0.414572 139.999924
17 139.999924 -0.000119 0.000060 -1.674325 -4.852774 -0.051147 139.999924
[Rope3_Seg03]
16 139.999924 -0.000119 0.000119 -0.660112 -2.904360 -0.436759 139.999924
17 139.999924 -0.000119 0.000119 -1.414001 -4.894397 -0.234939 139.999924
[Rope3_Seg04]
16 139.999924 0.000119 0.000000 0.435567 1.329211 -0.542304 139.999924
17 139.999924 0.000119 0.000000 -0.038698 -1.284970 -1.694450 139.999924
[Rope3_Seg05]
16 139.999924 -0.000238 0.000060 -0.729937 -3.750019 -0.325783 139.999924
17 139.999924 -0.000238 0.000060 -1.556249 -7.045210 0.434454 139.999924
[Rope3_Seg06]
16 139.999893 -0.000119 -0.000060 -1.869058 -13.815327 -0.185411 139.999893
17 139.999893 -0.000119 -0.000060 -2.772724 -15.619722 3.403439 139.999893
[Rope3_Seg07]
16 139.999771 0.000060 -0.000119 -0.027236 -15.601074 -0.663496 139.999771
17 139.999771 0.000060 -0.000119 -0.653760 -12.192755 2.130800 139.999771
[Rope3_Seg08]
16 139.999985 -0.000060 0.000000 1.089927 -8.469410 -0.431161 139.999985
17 139.999985 -0.000060 0.000000 0.414165 -6.513991 0.934176 139.999985
[Rope3_Seg09]
16 90.185997 -0.000179 -0.000060 89.793228 -1.359877 -0.847183 90.185997
17 90.185997 -0.000179 -0.000060 89.793228 -1.359877 -0.847183 90.185997
[R_rear_hand01]
16 103.366196 -6.073594 -10.757982 -177.714203 24.565960 -73.910950 104.101845
17 103.366196 -6.073594 -10.757982 -177.714203 24.565960 -73.910950 104.101845
[R_rear_hand02]
16 100.509819 12.039542 -7.992327 -12.874829 36.868488 72.167213 101.543350
17 100.509819 12.039542 -7.992327 -12.874829 36.868488 72.167213 101.543350
[R_rear_hand03]
16 101.539970 5.215704 5.435467 71.484581 -71.816628 21.513813 101.819031
17 101.539970 5.215704 5.435467 71.484581 -71.816628 21.513813 101.819031
[Rope4_Seg01]
16 0.000000 0.000000 0.000000 -95.055969 -33.298260 -113.988220 0.000000
17 0.000000 0.000000 0.000000 -94.814751 -32.790630 -114.395531 0.000000
[Rope4_Seg02]
16 139.999985 0.000060 0.000119 0.428089 10.382760 8.077312 139.999985
17 139.999985 0.000060 0.000119 0.614002 11.752546 5.944202 139.999985
[Rope4_Seg03]
16 139.999924 0.000000 -0.000238 0.073666 17.643648 13.260514 139.999924
17 139.999924 0.000000 -0.000238 2.141417 19.846233 8.160859 139.999924
[Rope4_Seg04]
16 139.999985 0.000000 0.000119 3.842087 22.530657 9.504540 139.999985
17 139.999985 0.000000 0.000119 11.934551 23.659204 1.336709 139.999985
[Rope4_Seg05]
16 139.999802 -0.000060 -0.000119 -44.527943 12.455306 20.242262 139.999802
17 139.999802 -0.000060 -0.000119 -58.535004 19.925486 23.167950 139.999802
[Rope4_Seg06]
16 139.999924 0.000000 0.000060 -58.389526 -17.586542 27.970938 139.999924
17 139.999924 0.000000 0.000060 -65.723145 -19.249063 30.200306 139.999924
[Rope4_Seg07]
16 139.999802 0.000000 0.000000 -7.018954 -15.033822 1.678656 139.999802
17 139.999802 0.000000 0.000000 -4.791576 -11.627831 0.435104 139.999802
[Rope4_Seg08]
16 139.999924 0.000000 0.000119 -3.420885 -6.396718 0.252344 139.999924
17 139.999924 0.000000 0.000119 -2.946067 -5.229171 -0.180737 139.999924
[Rope4_Seg09]
16 90.185791 0.000060 0.000060 -135.617828 2.228885 0.850567 90.185791
17 90.185791 0.000060 0.000060 -135.617828 2.228885 0.850567 90.185791
[L_rear_hand01]
16 101.696655 -8.392275 -7.654577 -12.874829 -36.868488 107.832764 102.329041
17 101.696655 -8.392275 -7.654577 -12.874829 -36.868488 107.832764 102.329041
[L_rear_hand02]
16 102.726799 -1.568258 5.773216 71.484581 71.816628 158.486160 102.900848
17 102.726799 -1.568258 5.773216 71.484581 71.816628 158.486160 102.900848
[L_rear_hand03]
16 104.552910 9.721220 -10.420293 -177.714203 -24.565960 -106.089035 105.519653
17 104.552910 9.721220 -10.420293 -177.714203 -24.565960 -106.089035 105.519653
